<svg xmlns="http://www.w3.org/2000/svg" width="120" height="240" class="svgbob">
  <style>.svgbob line, .svgbob path, .svgbob circle, .svgbob rect, .svgbob polygon {
  stroke: black;
  stroke-width: 2;
  stroke-opacity: 1;
  fill-opacity: 1;
  stroke-linecap: round;
  stroke-linejoin: miter;
}

.svgbob text {
  white-space: pre;
  fill: black;
  font-family: Iosevka Fixed, monospace;
  font-size: 14px;
}

.svgbob rect.backdrop {
  stroke: none;
  fill: white;
}

.svgbob .broken {
  stroke-dasharray: 8;
}

.svgbob .filled {
  fill: black;
}

.svgbob .bg_filled {
  fill: white;
  stroke-width: 1;
}

.svgbob .nofill {
  fill: white;
}

.svgbob .end_marked_arrow {
  marker-end: url(#arrow);
}

.svgbob .start_marked_arrow {
  marker-start: url(#arrow);
}

.svgbob .end_marked_diamond {
  marker-end: url(#diamond);
}

.svgbob .start_marked_diamond {
  marker-start: url(#diamond);
}

.svgbob .end_marked_circle {
  marker-end: url(#circle);
}

.svgbob .start_marked_circle {
  marker-start: url(#circle);
}

.svgbob .end_marked_open_circle {
  marker-end: url(#open_circle);
}

.svgbob .start_marked_open_circle {
  marker-start: url(#open_circle);
}

.svgbob .end_marked_big_open_circle {
  marker-end: url(#big_open_circle);
}

.svgbob .start_marked_big_open_circle {
  marker-start: url(#big_open_circle);
}

</style>
  <defs>
    <marker id="arrow" viewBox="-2 -2 8 8" refX="4" refY="2" markerWidth="7" markerHeight="7" orient="auto-start-reverse">
      <polygon points="0,0 0,4 4,2 0,0"></polygon>
    </marker>
    <marker id="diamond" viewBox="-2 -2 8 8" refX="4" refY="2" markerWidth="7" markerHeight="7" orient="auto-start-reverse">
      <polygon points="0,2 2,0 4,2 2,4 0,2"></polygon>
    </marker>
    <marker id="circle" viewBox="0 0 8 8" refX="4" refY="4" markerWidth="7" markerHeight="7" orient="auto-start-reverse">
      <circle cx="4" cy="4" r="2" class="filled"></circle>
    </marker>
    <marker id="open_circle" viewBox="0 0 8 8" refX="4" refY="4" markerWidth="7" markerHeight="7" orient="auto-start-reverse">
      <circle cx="4" cy="4" r="2" class="bg_filled"></circle>
    </marker>
    <marker id="big_open_circle" viewBox="0 0 8 8" refX="4" refY="4" markerWidth="7" markerHeight="7" orient="auto-start-reverse">
      <circle cx="4" cy="4" r="3" class="bg_filled"></circle>
    </marker>
  </defs>
  <rect class="backdrop" x="0" y="0" width="120" height="240"></rect>
  <text x="18" y="44" >3</text>
  <text x="74" y="44" >6</text>
  <text x="18" y="108" >2</text>
  <text x="74" y="108" >5</text>
  <text x="18" y="172" >1</text>
  <text x="74" y="172" >4</text>
  <g>
    <line x1="76" y1="8" x2="108" y2="8" class="solid"></line>
    <line x1="76" y1="8" x2="76" y2="24" class="solid"></line>
    <line x1="108" y1="8" x2="108" y2="72" class="solid"></line>
    <line x1="60" y1="24" x2="92" y2="24" class="solid"></line>
    <line x1="60" y1="24" x2="60" y2="56" class="solid"></line>
    <line x1="92" y1="24" x2="92" y2="56" class="solid"></line>
    <line x1="60" y1="56" x2="92" y2="56" class="solid"></line>
    <line x1="76" y1="56" x2="76" y2="88" class="solid"></line>
    <line x1="76" y1="72" x2="108" y2="72" class="solid"></line>
    <line x1="60" y1="88" x2="92" y2="88" class="solid"></line>
    <line x1="60" y1="88" x2="60" y2="120" class="solid"></line>
    <line x1="92" y1="88" x2="92" y2="120" class="solid"></line>
    <line x1="60" y1="120" x2="92" y2="120" class="solid"></line>
    <line x1="76" y1="120" x2="76" y2="152" class="solid"></line>
    <line x1="60" y1="152" x2="92" y2="152" class="solid"></line>
    <line x1="60" y1="152" x2="60" y2="184" class="solid"></line>
    <line x1="92" y1="152" x2="92" y2="184" class="solid"></line>
    <line x1="60" y1="184" x2="92" y2="184" class="solid"></line>
    <line x1="76" y1="184" x2="76" y2="216" class="solid"></line>
    <line x1="4" y1="24" x2="36" y2="24" class="solid"></line>
    <line x1="4" y1="24" x2="4" y2="56" class="solid"></line>
    <line x1="36" y1="24" x2="36" y2="56" class="solid"></line>
    <line x1="4" y1="56" x2="36" y2="56" class="solid"></line>
    <line x1="20" y1="56" x2="20" y2="88" class="solid"></line>
    <line x1="4" y1="88" x2="36" y2="88" class="solid"></line>
    <line x1="4" y1="88" x2="4" y2="120" class="solid"></line>
    <line x1="36" y1="88" x2="36" y2="120" class="solid"></line>
    <line x1="4" y1="120" x2="36" y2="120" class="solid"></line>
    <line x1="20" y1="120" x2="20" y2="152" class="solid"></line>
    <line x1="4" y1="152" x2="36" y2="152" class="solid"></line>
    <line x1="4" y1="152" x2="4" y2="184" class="solid"></line>
    <line x1="36" y1="152" x2="36" y2="184" class="solid"></line>
    <line x1="4" y1="184" x2="36" y2="184" class="solid"></line>
    <line x1="20" y1="184" x2="20" y2="216" class="solid"></line>
    <line x1="20" y1="216" x2="76" y2="216" class="solid"></line>
  </g>
</svg>
