<svg xmlns="http://www.w3.org/2000/svg" width="200" height="256" class="svgbob">
  <style>.svgbob line, .svgbob path, .svgbob circle, .svgbob rect, .svgbob polygon {
  stroke: black;
  stroke-width: 2;
  stroke-opacity: 1;
  fill-opacity: 1;
  stroke-linecap: round;
  stroke-linejoin: miter;
}

.svgbob text {
  white-space: pre;
  fill: black;
  font-family: Iosevka Fixed, monospace;
  font-size: 14px;
}

.svgbob rect.backdrop {
  stroke: none;
  fill: white;
}

.svgbob .broken {
  stroke-dasharray: 8;
}

.svgbob .filled {
  fill: black;
}

.svgbob .bg_filled {
  fill: white;
  stroke-width: 1;
}

.svgbob .nofill {
  fill: white;
}

.svgbob .end_marked_arrow {
  marker-end: url(#arrow);
}

.svgbob .start_marked_arrow {
  marker-start: url(#arrow);
}

.svgbob .end_marked_diamond {
  marker-end: url(#diamond);
}

.svgbob .start_marked_diamond {
  marker-start: url(#diamond);
}

.svgbob .end_marked_circle {
  marker-end: url(#circle);
}

.svgbob .start_marked_circle {
  marker-start: url(#circle);
}

.svgbob .end_marked_open_circle {
  marker-end: url(#open_circle);
}

.svgbob .start_marked_open_circle {
  marker-start: url(#open_circle);
}

.svgbob .end_marked_big_open_circle {
  marker-end: url(#big_open_circle);
}

.svgbob .start_marked_big_open_circle {
  marker-start: url(#big_open_circle);
}

</style>
  <defs>
    <marker id="arrow" viewBox="-2 -2 8 8" refX="4" refY="2" markerWidth="7" markerHeight="7" orient="auto-start-reverse">
      <polygon points="0,0 0,4 4,2 0,0"></polygon>
    </marker>
    <marker id="diamond" viewBox="-2 -2 8 8" refX="4" refY="2" markerWidth="7" markerHeight="7" orient="auto-start-reverse">
      <polygon points="0,2 2,0 4,2 2,4 0,2"></polygon>
    </marker>
    <marker id="circle" viewBox="0 0 8 8" refX="4" refY="4" markerWidth="7" markerHeight="7" orient="auto-start-reverse">
      <circle cx="4" cy="4" r="2" class="filled"></circle>
    </marker>
    <marker id="open_circle" viewBox="0 0 8 8" refX="4" refY="4" markerWidth="7" markerHeight="7" orient="auto-start-reverse">
      <circle cx="4" cy="4" r="2" class="bg_filled"></circle>
    </marker>
    <marker id="big_open_circle" viewBox="0 0 8 8" refX="4" refY="4" markerWidth="7" markerHeight="7" orient="auto-start-reverse">
      <circle cx="4" cy="4" r="3" class="bg_filled"></circle>
    </marker>
  </defs>
  <rect class="backdrop" x="0" y="0" width="200" height="256"></rect>
  <text x="162" y="28" >6</text>
  <text x="162" y="92" >5</text>
  <text x="26" y="156" >2</text>
  <text x="90" y="156" >3</text>
  <text x="162" y="156" >4</text>
  <text x="90" y="220" >1</text>
  <g>
    <line x1="140" y1="8" x2="188" y2="8" class="solid"></line>
    <line x1="140" y1="8" x2="140" y2="40" class="solid"></line>
    <line x1="188" y1="8" x2="188" y2="40" class="solid"></line>
    <line x1="140" y1="40" x2="188" y2="40" class="solid"></line>
    <line x1="164" y1="40" x2="164" y2="72" class="solid"></line>
    <line x1="140" y1="72" x2="188" y2="72" class="solid"></line>
    <line x1="140" y1="72" x2="140" y2="104" class="solid"></line>
    <line x1="188" y1="72" x2="188" y2="104" class="solid"></line>
    <line x1="140" y1="104" x2="188" y2="104" class="solid"></line>
    <line x1="164" y1="104" x2="164" y2="136" class="solid"></line>
    <line x1="140" y1="136" x2="188" y2="136" class="solid"></line>
    <line x1="140" y1="136" x2="140" y2="168" class="solid"></line>
    <line x1="188" y1="136" x2="188" y2="168" class="solid"></line>
    <line x1="140" y1="168" x2="188" y2="168" class="solid"></line>
    <line x1="140" y1="168" x2="124" y2="200" class="solid"></line>
    <line x1="92" y1="120" x2="132" y2="120" class="solid"></line>
    <line x1="92" y1="120" x2="92" y2="136" class="solid"></line>
    <line x1="132" y1="120" x2="132" y2="168" class="solid"></line>
    <line x1="68" y1="136" x2="116" y2="136" class="solid"></line>
    <line x1="68" y1="136" x2="68" y2="168" class="solid"></line>
    <line x1="116" y1="136" x2="116" y2="168" class="solid"></line>
    <line x1="68" y1="168" x2="116" y2="168" class="solid"></line>
    <line x1="92" y1="168" x2="92" y2="200" class="solid"></line>
    <line x1="132" y1="168" x2="120" y2="192" class="solid"></line>
    <line x1="92" y1="184" x2="124" y2="184" class="solid"></line>
    <line x1="4" y1="136" x2="52" y2="136" class="solid"></line>
    <line x1="4" y1="136" x2="4" y2="168" class="solid"></line>
    <line x1="52" y1="136" x2="52" y2="168" class="solid"></line>
    <line x1="4" y1="168" x2="52" y2="168" class="solid"></line>
    <line x1="52" y1="168" x2="68" y2="200" class="solid"></line>
    <line x1="68" y1="200" x2="124" y2="200" class="solid"></line>
    <line x1="68" y1="200" x2="68" y2="232" class="solid"></line>
    <line x1="124" y1="200" x2="124" y2="232" class="solid"></line>
    <line x1="68" y1="232" x2="124" y2="232" class="solid"></line>
  </g>
</svg>
